<svg width="544" height="545" viewBox="0 0 544 545" fill="none" xmlns="http://www.w3.org/2000/svg">
<g clip-path="url(#clip0_3955_181752)">
<path d="M429.273 477.809C432.309 477.819 435.345 477.731 438.372 477.877C444.036 478.14 444.435 478.598 444.435 484.018C444.435 494.976 444.25 505.944 444.532 516.892C444.639 521.096 443.549 522.41 439.189 522.38C407.347 522.195 375.505 522.283 343.663 522.283C264.136 522.283 184.609 522.244 105.082 522.39C100.537 522.39 99.3401 521.222 99.4568 516.726C99.778 504.318 99.5639 491.901 99.5639 478.627C104.829 478.345 109.763 478.082 114.697 477.809C115.971 478.033 117.246 478.452 118.531 478.452C139.366 478.5 160.202 478.491 181.028 478.481C182.176 478.481 183.315 478.315 184.648 478.218V428.908C184.648 423.896 184.638 418.874 184.628 413.863C184.628 394.896 184.628 375.919 184.628 356.952C184.628 351.921 184.628 346.889 184.628 341.858C185.164 335.717 185.358 329.518 186.302 323.446C188.472 309.5 194.749 297.267 202.749 285.823C207.488 280.996 212.237 276.169 216.976 271.342C218.066 270.593 219.176 269.873 220.256 269.104C243.67 252.336 269.265 248.006 296.961 255.665C307.948 258.701 317.475 264.618 326.779 270.953C331.625 275.916 336.462 280.889 341.298 285.852C348.51 296.372 354.397 307.505 357.103 320.108C358.066 324.623 358.991 329.148 359.925 333.674C359.652 335.036 359.146 336.408 359.146 337.771C359.107 382.867 359.127 427.973 359.127 473.07C359.127 474.763 359.127 476.466 359.127 478.179C360.382 478.335 360.956 478.461 361.531 478.461C383.115 478.481 404.71 478.491 426.295 478.461C427.278 478.461 428.261 478.023 429.243 477.8L429.273 477.809ZM211.488 352.524C211.41 353.254 211.264 353.984 211.264 354.723C211.264 394.866 211.264 435.009 211.283 475.153C211.283 476.135 211.497 477.118 211.614 478.15H332.735C332.735 476.184 332.735 474.569 332.735 472.963C332.735 434.893 332.735 396.822 332.735 358.762C332.735 356.699 332.598 354.636 332.53 352.563C332.589 347.395 332.793 342.218 332.676 337.06C332.083 312.001 315.033 289.317 290.966 281.454C266.861 273.581 239.894 281.833 224.353 301.442C212.325 316.624 210.106 334.073 211.497 352.534L211.488 352.524Z" fill="white"/>
<path d="M482.884 251.208C479.118 263.606 463.323 267.265 453.932 257.757C446.663 250.4 439.675 242.78 432.542 235.287C431.53 234.226 430.411 233.292 429.33 232.299C423.482 226.1 417.643 219.901 411.794 213.702C406.724 208.359 401.644 203.016 396.574 197.674C387.007 187.455 377.49 177.179 367.865 167.019C359.447 158.144 350.913 149.395 342.417 140.588C337.697 135.557 332.987 130.525 328.267 125.494C327.849 124.891 327.498 124.219 327.002 123.694C309.213 104.912 291.423 86.1391 273.604 67.3862C273.137 66.8899 272.475 66.5688 271.697 66.0238C258.131 80.3391 244.692 94.4597 231.311 108.639C226.065 114.205 220.946 119.889 215.769 125.513C211.351 130.272 206.942 135.041 202.524 139.8L202.563 139.916C202.184 140.218 201.814 140.51 201.434 140.812C191.936 150.65 182.38 160.44 172.959 170.357C164.97 178.775 157.126 187.339 149.224 195.834C148.922 196.165 148.621 196.496 148.319 196.827L148.27 196.788C143.268 202.17 138.256 207.542 133.254 212.923C127.075 219.414 120.895 225.905 114.715 232.387C106.736 240.629 98.7945 248.911 90.7561 257.105C81.5305 266.506 68.2468 264.774 61.7266 253.407C62.9917 251.11 63.8773 248.483 65.5803 246.585C71.3025 240.221 77.3167 234.119 83.2238 227.91C98.7847 211.532 114.365 195.163 129.907 178.765C146.655 161.092 163.364 143.371 180.103 125.689C193.318 111.724 206.553 97.7879 219.769 83.8327C232.984 69.8775 246.093 55.8153 259.445 41.9866C266.286 34.9019 277.779 34.9117 284.543 41.9477C296.834 54.7351 308.901 67.7366 321.095 80.6213C334.593 94.8782 348.149 109.077 361.627 123.363C380.273 143.118 398.822 162.951 417.487 182.687C430.245 196.185 443.12 209.576 455.947 223.005C464.919 232.406 473.892 241.797 482.874 251.198L482.884 251.208Z" fill="#A70D53"/>
<path d="M326.79 270.953C317.487 264.618 307.969 258.711 296.982 255.675C269.286 248.016 243.692 252.346 220.277 269.114C219.197 269.883 218.097 270.603 216.998 271.352C214.166 270.856 211.344 269.912 208.521 269.922C177.351 270.087 146.19 270.399 115.02 270.661C115.02 268.316 115.02 265.961 115.029 263.616C115.487 262.39 115.944 261.163 116.411 259.937C117.813 258.137 119.078 256.21 120.635 254.565C131.184 243.471 141.84 232.474 152.36 221.361C154.54 219.054 156.321 216.378 158.286 213.867C158.841 213.809 159.406 213.76 159.96 213.702C187.452 213.731 214.944 213.809 242.446 213.76C245.959 213.76 249.462 213.157 252.966 212.826C255.603 214.695 258.036 216.991 260.907 218.363C271.184 223.268 280.399 220.563 288.885 213.838C290.939 213.712 292.992 213.478 295.046 213.478C324.717 213.537 354.38 213.624 384.051 213.712C384.616 213.76 385.18 213.809 385.745 213.858C386.63 215.162 387.36 216.612 388.431 217.731C392.061 221.546 395.866 225.185 399.486 228.99C408.079 238.012 416.584 247.111 425.177 256.132C426.287 257.3 427.717 258.156 429.002 259.159C429.002 260.356 429.012 261.562 429.021 262.759C428.944 262.837 428.778 262.935 428.798 262.993C428.836 263.188 428.944 263.372 429.021 263.557C429.021 265.942 429.021 268.326 429.031 270.71C428.846 270.71 428.661 270.73 428.476 270.769C426.598 270.457 424.72 269.883 422.832 269.883C392.343 269.825 361.853 269.825 331.364 269.883C329.846 269.883 328.328 270.574 326.8 270.934L326.79 270.953Z" fill="#18603D"/>
<path d="M482.884 251.206C473.912 241.806 464.929 232.415 455.957 223.014C443.13 209.574 430.255 196.193 417.497 182.696C398.832 162.96 380.283 143.117 361.637 123.371C348.159 109.095 334.603 94.8965 321.105 80.6298C308.911 67.7451 296.844 54.7436 284.553 41.9562C277.789 34.9202 266.296 34.9105 259.455 41.9951C246.103 55.8238 232.994 69.8861 219.779 83.8413C206.563 97.7965 193.328 111.732 180.113 125.697C163.374 143.38 146.675 161.101 129.917 178.774C114.375 195.172 98.7948 211.54 83.2339 227.919C77.3365 234.127 71.3224 240.229 65.5904 246.594C63.8874 248.491 62.9921 251.119 61.7367 253.416C58.1068 245.844 59.1578 238.945 65.0844 232.677C84.8883 211.696 104.741 190.744 124.574 169.782C168.814 123.021 213.045 76.2603 257.275 29.49C266.569 19.661 277.595 19.9627 287.229 30.142C344.704 90.8578 402.209 151.554 459.694 212.26C466.408 219.355 473.23 226.352 479.721 233.651C484.227 238.711 485.95 244.608 482.884 251.206Z" fill="#C11068"/>
<path d="M202.758 285.832C194.759 297.277 188.482 309.509 186.312 323.455C185.368 329.537 185.173 335.726 184.638 341.867C161.438 341.867 138.237 341.867 115.027 341.857C115.027 322.89 115.027 303.923 115.027 284.966C141.799 284.966 168.571 284.947 195.343 285.005C197.815 285.005 200.286 285.55 202.768 285.842L202.758 285.832Z" fill="#18603D"/>
<path d="M359.935 333.683C358.991 329.158 358.076 324.633 357.113 320.117C354.417 307.515 348.529 296.382 341.309 285.862C344.004 285.56 346.7 285.005 349.386 284.996C375.729 284.908 402.073 284.898 428.407 284.879C428.602 284.918 428.796 284.947 428.991 284.947C428.991 303.914 428.991 322.871 428.991 341.838C428.796 341.838 428.592 341.868 428.407 341.916C405.615 341.897 382.824 341.868 360.042 341.848C360.003 339.133 359.974 336.408 359.935 333.693V333.683Z" fill="#18603D"/>
<path d="M184.638 356.961C184.638 375.928 184.638 394.905 184.638 413.872C162.197 413.823 139.746 413.784 117.304 413.735C117.032 413.735 116.76 413.735 116.487 413.735C115.991 413.774 115.504 413.813 115.008 413.852C115.008 396.666 115.018 379.48 115.027 362.294C115.222 360.523 115.417 358.752 115.621 356.98C116.935 357.097 118.258 357.321 119.572 357.321C141.264 357.224 162.956 357.097 184.648 356.971L184.638 356.961Z" fill="#18603D"/>
<path d="M429.012 356.056C429.003 375.033 428.993 394.02 428.983 412.996C428.769 413.269 428.565 413.541 428.351 413.814C407.573 413.814 386.806 413.843 366.029 413.785C364.316 413.785 362.603 413.24 360.891 412.948C360.891 394.565 360.891 376.172 360.9 357.789C363.226 357.507 365.552 356.991 367.888 356.981C386.222 356.913 404.566 356.971 422.901 356.903C424.769 356.903 426.628 356.329 428.487 356.018C428.662 356.047 428.837 356.057 429.012 356.047V356.056Z" fill="#18603D"/>
<path d="M360.899 357.799C360.899 376.182 360.899 394.575 360.889 412.958C360.588 416.86 360.364 420.772 359.945 424.665C359.605 427.906 360.724 429.025 364.13 429.005C385.744 428.85 407.368 428.918 428.982 428.908C429.079 445.208 429.177 461.509 429.274 477.819C428.291 478.053 427.308 478.481 426.325 478.481C404.74 478.51 383.146 478.501 361.561 478.481C360.987 478.481 360.413 478.355 359.157 478.199C359.157 476.486 359.157 474.783 359.157 473.09C359.157 427.993 359.138 382.887 359.177 337.79C359.177 336.428 359.683 335.056 359.955 333.693C359.994 336.408 360.023 339.133 360.062 341.848C360.344 347.172 360.636 352.485 360.919 357.808L360.899 357.799Z" fill="#18603D"/>
<path d="M184.65 428.918V478.228C183.317 478.325 182.179 478.491 181.03 478.491C160.195 478.501 139.359 478.501 118.533 478.462C117.259 478.462 115.984 478.043 114.699 477.819C114.738 463.115 114.767 448.41 114.826 433.706C114.826 432.1 114.962 430.485 115.04 428.879C138.24 428.898 161.45 428.908 184.65 428.928V428.918Z" fill="#18603D"/>
<path d="M202.758 285.831C200.286 285.54 197.815 285.004 195.333 284.995C168.561 284.936 141.789 284.956 115.018 284.956C115.018 280.197 115.018 275.428 115.008 270.67C146.178 270.397 177.339 270.086 208.51 269.92C211.332 269.901 214.164 270.854 216.986 271.351C212.247 276.178 207.498 281.005 202.758 285.831Z" fill="#165132"/>
<path d="M184.638 356.961C162.946 357.087 141.254 357.214 119.562 357.311C118.249 357.311 116.925 357.087 115.611 356.971C115.426 356.903 115.241 356.883 115.047 356.922C115.047 351.9 115.037 346.869 115.027 341.848C138.228 341.848 161.428 341.848 184.638 341.857C184.638 346.889 184.638 351.92 184.638 356.951V356.961Z" fill="#165132"/>
<path d="M184.648 428.918C161.447 428.898 138.237 428.888 115.037 428.869C115.027 423.857 115.018 418.855 115.008 413.843C115.504 413.804 115.991 413.765 116.487 413.727L116.896 413.765L117.304 413.736C139.746 413.785 162.187 413.824 184.638 413.873C184.638 418.884 184.648 423.906 184.657 428.918H184.648Z" fill="#165132"/>
<path d="M428.981 428.907C407.367 428.907 385.744 428.859 364.13 429.005C360.724 429.024 359.604 427.905 359.945 424.664C360.364 420.772 360.578 416.859 360.889 412.957C362.602 413.249 364.315 413.794 366.027 413.794C386.804 413.852 407.572 413.823 428.349 413.823C428.563 418.222 428.787 422.611 429.001 427.01C429.001 427.642 428.991 428.275 428.981 428.907Z" fill="#165132"/>
<path d="M158.285 213.876C156.32 216.386 154.539 219.063 152.359 221.369C141.839 232.483 131.183 243.479 120.634 254.573C119.067 256.218 117.812 258.145 116.41 259.945C115.943 259.42 115.486 258.894 115.019 258.369C115.019 250.885 115.009 243.402 114.999 235.928C115.009 235.499 115.019 235.061 115.028 234.624C114.931 233.884 114.824 233.144 114.727 232.405C120.906 225.914 127.086 219.423 133.265 212.941C141.605 213.253 149.945 213.564 158.285 213.876Z" fill="#165132"/>
<path d="M428.992 259.167C427.707 258.165 426.277 257.309 425.167 256.141C416.574 247.12 408.069 238.021 399.475 228.999C395.846 225.194 392.041 221.555 388.42 217.74C387.35 216.611 386.62 215.161 385.734 213.867C394.425 213.808 403.105 213.75 411.796 213.691C417.645 219.89 423.484 226.09 429.332 232.289C429.215 241.242 429.108 250.205 428.992 259.158V259.167Z" fill="#165132"/>
<path d="M429.01 356.056C428.834 356.056 428.659 356.056 428.484 356.027C428.455 351.326 428.435 346.616 428.406 341.916C428.601 341.877 428.796 341.848 428.99 341.838C428.99 346.577 428.99 351.317 429 356.056H429.01Z" fill="#18603D"/>
<path d="M429.002 284.946C428.807 284.946 428.613 284.917 428.418 284.878C428.428 280.178 428.437 275.487 428.457 270.787C428.642 270.748 428.827 270.729 429.012 270.729C429.012 275.468 429.012 280.207 429.012 284.946H429.002Z" fill="#18603D"/>
<path d="M429 427C428.786 422.601 428.562 418.212 428.348 413.814C428.562 413.541 428.766 413.269 428.98 412.996C428.98 417.667 429 422.329 429 427Z" fill="#18603D"/>
<path d="M115.047 356.922C115.241 356.883 115.426 356.903 115.611 356.971C115.417 358.742 115.222 360.513 115.027 362.284C115.027 360.494 115.047 358.713 115.047 356.922Z" fill="#18603D"/>
<path d="M115.008 258.369C115.475 258.895 115.932 259.42 116.399 259.946C115.942 261.172 115.485 262.398 115.018 263.624C115.018 261.873 115.018 260.121 115.008 258.379V258.369Z" fill="#18603D"/>
<path d="M429.002 263.566C428.924 263.381 428.817 263.196 428.778 263.001C428.768 262.943 428.924 262.845 429.002 262.768C429.196 263.04 429.196 263.303 429.002 263.575V263.566Z" fill="#18603D"/>
<path d="M332.52 352.542C332.588 354.605 332.724 356.668 332.724 358.741C332.734 396.811 332.724 434.882 332.724 472.942C332.724 474.558 332.724 476.173 332.724 478.129H211.604C211.487 477.098 211.273 476.115 211.273 475.132C211.254 434.989 211.244 394.846 211.254 354.702C211.254 353.973 211.4 353.243 211.478 352.503C212.256 351.919 213.19 351.462 213.794 350.732C220.869 342.149 229.277 335.249 239.203 330.218C250.949 324.272 263.435 322.549 276.485 323.065C295.141 323.795 310.575 331.395 323.839 344.075C326.759 346.868 329.62 349.71 332.51 352.532L332.52 352.542Z" fill="#A70D53"/>
<path d="M332.52 352.542C329.63 349.72 326.769 346.879 323.849 344.086C310.585 331.405 295.141 323.795 276.495 323.075C263.445 322.569 250.959 324.282 239.213 330.228C229.277 335.259 220.869 342.159 213.804 350.742C213.2 351.472 212.266 351.929 211.487 352.513C210.096 334.052 212.315 316.603 224.343 301.422C239.884 281.813 266.851 273.55 290.956 281.433C315.013 289.296 332.072 311.981 332.666 337.04C332.783 342.207 332.578 347.375 332.52 352.542Z" fill="#840D49"/>
<path d="M428.458 270.777C428.448 275.477 428.438 280.178 428.419 284.869C402.075 284.898 375.732 284.898 349.398 284.985C346.702 284.985 344.006 285.55 341.32 285.851C336.484 280.888 331.637 275.915 326.801 270.952C328.319 270.582 329.837 269.901 331.355 269.901C361.844 269.843 392.334 269.843 422.823 269.901C424.701 269.901 426.58 270.475 428.467 270.787L428.458 270.777Z" fill="#165132"/>
<path d="M215.77 125.523C220.947 119.898 226.066 114.205 231.321 108.648C244.702 94.4691 258.131 80.3485 271.707 66.0332C272.495 66.5879 273.147 66.8993 273.615 67.3956C291.423 86.1486 309.223 104.921 327.012 123.703C327.508 124.229 327.859 124.9 328.277 125.503C326.642 125.912 325.007 126.623 323.363 126.661C317.096 126.798 310.819 126.72 303.238 126.72C307.958 132.442 311.792 137.074 315.616 141.716C286.84 141.716 258.063 141.716 229.277 141.716C233.141 136.851 237.004 131.985 241.043 126.905C234.269 126.905 227.302 126.983 220.343 126.846C218.816 126.817 217.297 126 215.779 125.542L215.77 125.523ZM301.165 126.457C300.883 125.523 300.883 125.163 300.707 124.978C291.706 115.47 282.714 105.943 273.576 96.5712C273.06 96.0359 270.763 96.3279 270.082 97.0091C262.929 104.191 255.913 111.509 248.906 118.847C246.765 121.095 244.789 123.499 242.181 126.467H301.155L301.165 126.457Z" fill="#165132"/>
<path d="M384.041 213.721C354.369 213.634 324.707 213.546 295.035 213.488C292.982 213.488 290.928 213.721 288.875 213.838C292.738 209.177 295.152 203.863 296.038 197.868C298.363 198.141 300.689 198.647 303.025 198.647C321.359 198.715 339.684 198.705 358.018 198.666C361.279 198.666 364.529 198.394 368.791 198.209C366.738 195.426 365.424 193.178 363.673 191.339C351.8 178.892 339.762 166.601 327.967 154.095C324.396 150.31 321.398 145.999 318.138 141.921C324.23 142.077 330.332 142.388 336.424 142.301C338.438 142.271 340.433 141.191 342.428 140.588C350.914 149.395 359.459 158.144 367.877 167.019C377.511 177.179 387.019 187.446 396.585 197.674C388.605 198.229 380.635 198.774 371.623 199.396C376.168 204.632 380.109 209.177 384.051 213.721H384.041Z" fill="#165132"/>
<path d="M252.957 212.835C249.454 213.156 245.94 213.76 242.437 213.769C214.945 213.818 187.453 213.75 159.951 213.711C161.83 211.492 163.727 209.293 165.596 207.064C167.863 204.359 170.121 201.634 172.554 198.705C164.632 198.705 157.713 198.773 150.804 198.617C149.947 198.598 149.12 197.44 148.273 196.807L148.322 196.846C148.624 196.515 148.925 196.184 149.227 195.853C157.129 187.358 164.963 178.784 172.963 170.376C182.383 160.459 191.939 150.669 201.447 140.83C201.827 140.529 202.197 140.237 202.566 139.935L202.527 139.818C204.172 140.49 205.788 141.687 207.452 141.745C214.147 141.969 220.852 141.833 227.548 141.833C225.718 143.526 223.772 145.122 222.078 146.942C215.344 154.163 208.756 161.52 201.992 168.712C195.044 176.098 187.959 183.358 180.943 190.686C178.977 192.739 177.04 194.822 174.16 197.887C178.5 198.228 181.663 198.695 184.816 198.675C204.454 198.588 224.093 198.364 243.731 198.276C244.763 198.276 245.804 199.074 246.836 199.493C247.03 204.466 249.901 210.217 252.947 212.854L252.957 212.835Z" fill="#165132"/>
<path d="M342.42 140.588C340.415 141.191 338.42 142.272 336.415 142.301C330.323 142.398 324.222 142.077 318.13 141.921C317.293 141.843 316.456 141.775 315.609 141.697C311.785 137.065 307.96 132.423 303.23 126.701C310.811 126.701 317.088 126.779 323.356 126.642C325 126.604 326.625 125.893 328.27 125.484C332.99 130.516 337.71 135.547 342.42 140.578V140.588Z" fill="#13442A"/>
<path d="M384.041 213.721C380.099 209.177 376.158 204.632 371.613 199.396C380.625 198.774 388.595 198.229 396.575 197.674C401.645 203.017 406.715 208.359 411.795 213.702C403.105 213.76 394.424 213.819 385.734 213.877C385.169 213.828 384.605 213.78 384.041 213.731V213.721Z" fill="#13442A"/>
<path d="M227.547 141.824C220.842 141.824 214.137 141.95 207.452 141.736C205.787 141.678 204.172 140.481 202.527 139.81C206.946 135.041 211.354 130.282 215.772 125.523C217.29 125.981 218.808 126.798 220.336 126.827C227.294 126.973 234.262 126.886 241.036 126.886C237.007 131.966 233.133 136.832 229.27 141.697C228.696 141.736 228.122 141.785 227.547 141.824Z" fill="#13442A"/>
<path d="M148.27 196.807C149.117 197.439 149.944 198.597 150.8 198.617C157.71 198.763 164.619 198.704 172.55 198.704C170.108 201.634 167.86 204.358 165.592 207.064C163.724 209.292 161.836 211.501 159.948 213.711C159.393 213.759 158.829 213.818 158.274 213.876C149.934 213.565 141.594 213.253 133.254 212.942C138.256 207.56 143.268 202.188 148.27 196.807Z" fill="#13442A"/>
<path d="M428.416 341.906C428.435 346.606 428.464 351.317 428.494 356.017C426.635 356.328 424.766 356.893 422.908 356.902C404.573 356.971 386.229 356.912 367.895 356.98C365.569 356.98 363.243 357.506 360.907 357.788C360.625 352.465 360.333 347.151 360.051 341.828C382.842 341.848 405.634 341.877 428.425 341.896L428.416 341.906Z" fill="#165132"/>
<path d="M117.294 413.736L116.885 413.765C116.885 413.765 116.477 413.736 116.477 413.727C116.749 413.727 117.022 413.727 117.294 413.727V413.736Z" fill="#18603D"/>
<path d="M296.038 197.878C295.814 188.059 292.203 179.982 283.425 175.009C266.852 165.598 246.951 177.325 246.883 196.389C246.883 197.421 246.854 198.452 246.844 199.484C245.803 199.056 244.771 198.258 243.74 198.267C224.101 198.355 204.463 198.579 184.824 198.666C181.671 198.686 178.508 198.209 174.168 197.878C177.049 194.822 178.985 192.73 180.951 190.677C187.967 183.349 195.052 176.099 202.001 168.703C208.764 161.511 215.352 154.154 222.087 146.933C223.78 145.113 225.726 143.527 227.556 141.824C228.13 141.785 228.704 141.746 229.278 141.697C258.055 141.697 286.831 141.697 315.618 141.697C316.455 141.765 317.301 141.843 318.138 141.911C321.398 145.989 324.396 150.3 327.967 154.086C339.772 166.591 351.81 178.882 363.673 191.329C365.424 193.168 366.738 195.416 368.791 198.199C364.539 198.384 361.279 198.657 358.019 198.657C339.684 198.696 321.359 198.705 303.025 198.637C300.699 198.637 298.373 198.131 296.038 197.859V197.878ZM312.951 172.741C312.951 167.058 308.582 162.523 302.996 162.416C297.225 162.299 292.447 166.902 292.398 172.615C292.349 178.493 296.855 183.115 302.636 183.125C308.514 183.125 312.951 178.668 312.951 172.741ZM231.001 172.634C230.981 178.493 235.584 183.242 241.239 183.203C246.98 183.174 251.661 178.434 251.613 172.702C251.564 167.126 247.039 162.504 241.511 162.387C235.721 162.26 231.02 166.844 231.001 172.624V172.634ZM270.258 157.19C270.278 151.38 265.743 146.913 259.826 146.913C254.143 146.913 249.734 151.254 249.637 156.927C249.54 162.766 254.036 167.457 259.797 167.515C265.539 167.574 270.239 162.941 270.258 157.18V157.19ZM273.752 157.21C273.772 162.883 278.579 167.652 284.204 167.564C289.78 167.476 294.296 162.941 294.373 157.365C294.451 151.273 289.887 146.777 283.717 146.894C278.17 146.991 273.733 151.585 273.752 157.21Z" fill="#18603D"/>
<path d="M301.165 126.457H242.191C244.799 123.489 246.775 121.085 248.916 118.837C255.913 111.5 262.93 104.182 270.092 96.9996C270.773 96.3184 273.06 96.0361 273.586 96.5616C282.724 105.933 291.716 115.461 300.718 124.968C300.893 125.153 300.893 125.513 301.175 126.448L301.165 126.457Z" fill="#18603D"/>
<path d="M312.952 172.741C312.952 178.668 308.524 183.125 302.637 183.125C296.856 183.125 292.341 178.493 292.399 172.615C292.448 166.902 297.226 162.309 302.997 162.416C308.583 162.523 312.943 167.058 312.952 172.741Z" fill="#EAEAEA"/>
<path d="M231 172.633C231.02 166.853 235.72 162.259 241.51 162.396C247.038 162.522 251.563 167.135 251.612 172.711C251.67 178.443 246.979 183.173 241.238 183.212C235.574 183.241 230.981 178.492 231 172.643V172.633Z" fill="#EAEAEA"/>
<path d="M270.256 157.189C270.237 162.95 265.536 167.582 259.795 167.524C254.033 167.465 249.528 162.775 249.635 156.936C249.732 151.262 254.15 146.922 259.824 146.922C265.741 146.922 270.285 151.389 270.256 157.199V157.189Z" fill="#EAEAEA"/>
<path d="M273.75 157.208C273.731 151.583 278.168 146.99 283.715 146.893C289.875 146.785 294.449 151.272 294.371 157.364C294.303 162.94 289.778 167.475 284.202 167.563C278.577 167.65 273.77 162.882 273.75 157.208Z" fill="#EAEAEA"/>
<path d="M296.834 197.206C296.834 211.998 285.769 223.141 271.084 223.131C256.632 223.131 245.373 211.57 245.509 196.895C245.636 182.628 257.576 171.145 271.979 171.427C285.915 171.699 296.824 183.017 296.834 197.206Z" fill="#EAEAEA"/>
</g>
<defs>
<clipPath id="clip0_3955_181752">
<rect width="544" height="544" fill="white" transform="translate(0 0.5)"/>
</clipPath>
</defs>
</svg>
