<svg width="315" height="523" viewBox="0 0 315 523" fill="none" xmlns="http://www.w3.org/2000/svg">
<path d="M171.126 516.905C158.066 524.415 145.186 524.625 132.386 516.155C131.096 515.295 129.106 515.245 127.436 515.235C116.986 515.155 106.536 515.305 96.0865 515.145C86.4265 514.995 80.2965 510.125 77.3065 501.425C75.4965 496.145 76.9565 491.605 79.9865 487.715C83.6465 483.015 82.8565 479.275 79.9465 474.515C74.3665 465.395 71.2365 455.375 74.3865 444.635C78.0465 432.145 87.9965 426.615 99.8165 425.475C107.626 424.725 110.816 421.675 113.346 414.525C117.606 402.475 123.426 390.975 128.596 379.245C139.606 374.235 150.606 369.215 161.856 364.095C165.996 367.755 170.186 372.275 175.176 375.605C179.516 378.505 184.566 381.065 189.636 381.985C196.446 383.235 201.926 377.015 203.816 367.665C205.116 361.275 206.436 354.885 207.726 348.645C212.356 347.695 216.906 346.765 221.456 345.835C224.646 345.185 227.836 344.525 231.016 343.875C257.726 361.505 271.876 387.585 280.256 417.445C282.706 426.185 282.516 425.775 291.646 427.385C311.956 430.985 319.056 444.565 310.726 465.425C308.696 470.505 305.436 475.175 302.216 479.655C300.176 482.485 300.046 484.775 301.476 487.765C307.346 500.085 301.246 511.955 287.446 513.905C279.056 515.095 270.456 514.695 261.956 515.175C259.976 515.285 257.746 515.595 256.116 516.595C243.716 524.235 231.336 524.465 218.796 517.055C213.336 510.265 211.396 502.615 215.356 494.715C218.976 487.485 223.746 480.835 227.976 473.905C235.826 461.075 243.346 448.205 232.546 433.265C231.226 431.435 230.046 429.505 228.696 427.705C217.176 412.195 197.846 406.155 180.586 412.655C168.026 417.375 160.056 427.025 153.586 438.165C152.866 439.405 152.556 441.255 152.866 442.645C154.506 450.045 155.556 457.745 158.426 464.655C161.456 471.925 166.146 478.545 170.416 485.255C177.086 495.725 178.316 506.165 171.116 516.865L171.126 516.905Z" fill="#C69C6D"/>
<path d="M231.017 343.885C227.827 344.535 224.637 345.195 221.457 345.845C216.907 346.775 212.357 347.705 207.727 348.655C206.447 354.895 205.117 361.275 203.817 367.675C201.917 377.035 196.447 383.245 189.637 381.995C184.577 381.065 179.517 378.515 175.177 375.615C170.197 372.285 166.007 367.765 161.857 364.105C150.607 369.225 139.607 374.245 128.597 379.255C114.137 383.695 99.5566 387.635 84.2266 386.515C75.8566 385.905 67.6566 384.075 61.2666 378.135C51.4866 369.035 48.7066 349.765 57.1666 339.785C60.5966 335.745 63.0566 330.875 65.9566 326.375C67.7666 325.355 69.5166 324.215 71.3866 323.325C85.9966 316.345 99.6066 307.945 111.437 296.725C130.537 278.615 135.317 256.295 125.697 231.795C119.377 215.705 112.147 200.315 99.4166 188.155C104.187 185.065 108.647 181.265 113.787 179.045C122.717 175.195 131.967 171.965 141.297 169.175C147.017 167.465 153.117 167.055 159.047 166.055C158.697 169.845 158.157 173.635 158.037 177.445C157.537 192.955 161.067 207.855 166.347 222.215C169.247 230.095 172.827 238.185 177.997 244.675C190.557 260.445 207.747 261.335 225.957 257.115C238.537 254.195 249.497 247.855 260.307 241.175C260.337 242.565 260.377 243.965 260.387 245.355C260.437 254.355 260.787 255.005 269.797 255.835C284.947 257.225 296.547 271.865 291.867 287.585C287.527 302.175 278.877 313.465 267.717 323.145C258.777 330.905 248.267 336.095 237.407 340.615C235.197 341.535 233.137 342.785 231.007 343.885H231.017ZM148.187 312.515C161.117 310.945 174.637 306.785 186.887 298.845C192.417 295.265 195.917 290.575 194.347 283.665C192.687 276.365 187.907 271.535 180.537 270.705C162.767 268.725 147.477 274.245 135.107 287.365C129.947 292.835 129.537 299.075 132.617 305.515C135.387 311.315 140.967 312.185 148.197 312.505L148.187 312.515ZM168.667 358.705C172.987 362.075 177.007 365.875 181.637 368.655C187.157 371.965 192.427 370.135 194.767 364.135C196.707 359.155 197.567 353.755 198.727 349.255C192.057 346.805 186.467 344.745 181.127 342.785C177.167 347.845 173.257 352.835 168.667 358.705Z" fill="#F8F1E1"/>
<path d="M260.325 241.174C249.515 247.864 238.555 254.204 225.975 257.114C207.765 261.334 190.565 260.444 178.015 244.674C172.845 238.184 169.265 230.094 166.365 222.214C161.085 207.844 157.555 192.954 158.055 177.444C158.175 173.644 158.715 169.854 159.065 166.054C163.685 164.984 168.265 163.244 172.925 162.994C182.225 162.504 191.565 162.844 200.885 162.834C207.145 164.204 213.395 165.574 219.655 166.944C236.435 172.344 247.815 182.934 253.465 200.014C257.915 213.464 261.725 226.824 260.335 241.164L260.325 241.174ZM186.195 236.834C186.145 242.774 189.105 245.954 195.045 246.364C198.335 246.594 203.435 241.004 203.435 237.164C203.435 232.134 199.585 227.894 195.015 227.884C190.125 227.884 186.235 231.824 186.195 236.824V236.834Z" fill="#C69C6D"/>
<path d="M99.4346 188.155C112.155 200.315 119.395 215.705 125.715 231.795C135.335 256.285 130.555 278.615 111.455 296.725C99.6246 307.945 86.0146 316.355 71.4046 323.325C69.5346 324.215 67.7846 325.345 65.9746 326.375C62.4546 322.415 58.4046 318.815 55.5246 314.435C46.8246 301.215 40.6746 287.005 40.7746 270.745C50.6146 267.005 60.7446 263.875 70.2046 259.355C79.4346 254.955 82.3646 246.815 79.5646 237.065C76.6446 226.915 73.4546 216.835 70.3846 206.725C75.1446 203.145 79.7146 199.275 84.7046 196.065C89.3846 193.065 94.5147 190.755 99.4447 188.145L99.4346 188.155ZM118.495 276.775C118.555 270.515 114.705 266.435 108.775 266.465C104.785 266.485 101.165 270.875 101.235 275.615C101.315 281.045 105.215 285.625 109.795 285.665C114.925 285.715 118.445 282.115 118.495 276.775Z" fill="#C69C6D"/>
<path d="M171.128 516.904C178.328 506.204 177.108 495.764 170.428 485.294C166.158 478.584 161.458 471.964 158.438 464.694C155.558 457.774 154.508 450.084 152.878 442.684C152.568 441.294 152.878 439.434 153.598 438.204C160.078 427.064 168.038 417.414 180.598 412.694C197.868 406.204 217.188 412.244 228.708 427.744C230.048 429.554 231.228 431.484 232.558 433.304C243.368 448.244 235.838 461.114 227.988 473.944C223.748 480.864 218.988 487.524 215.368 494.754C211.408 502.654 213.348 510.304 218.808 517.094C207.798 517.834 196.798 518.894 185.778 519.144C180.918 519.254 176.018 517.704 171.138 516.914L171.128 516.904Z" fill="#F8F1E1"/>
<path d="M70.376 206.724C73.446 216.834 76.646 226.904 79.556 237.064C82.356 246.814 79.416 254.954 70.196 259.354C60.726 263.874 50.606 267.004 40.766 270.744C31.826 270.704 22.716 271.754 13.986 270.364C2.45598 268.534 -1.71402 260.954 0.62598 249.404C3.60598 234.674 11.446 222.514 21.156 211.424C28.526 203.004 36.676 195.494 47.326 191.324C59.256 186.654 65.896 190.084 69.346 202.714C69.706 204.044 70.026 205.394 70.366 206.734L70.376 206.724Z" fill="#A70D53"/>
<path d="M219.656 166.954C213.396 165.584 207.146 164.214 200.886 162.844C199.096 153.774 196.136 144.744 195.756 135.614C194.926 115.504 204.656 103.864 224.436 100.554C240.546 97.8641 256.176 100.454 270.946 107.584C272.506 108.334 273.986 109.284 275.376 110.314C284.226 116.854 283.186 128.504 272.926 132.204C261.706 136.244 250.166 139.424 238.646 142.564C234.356 143.734 229.746 143.714 226.236 144.114C223.916 152.144 221.786 159.544 219.656 166.944V166.954Z" fill="#006837"/>
<path d="M145.688 96.9341H133.228C131.758 84.6941 134.518 73.8041 142.208 64.3141C147.568 57.7041 153.498 51.5641 158.688 44.8341C166.048 35.2941 164.128 22.3941 154.808 15.7841C144.828 8.69407 128.428 13.8141 124.358 25.3741C123.878 26.7341 124.088 28.3641 124.098 29.8641C124.108 31.9341 124.578 34.0541 124.248 36.0541C123.468 40.7141 119.988 43.7241 116.138 43.2541C111.458 42.6841 109.158 39.7641 108.828 35.1741C107.878 22.2041 113.648 12.7841 124.348 6.02406C141.088 -4.54594 163.968 0.414068 173.548 17.2841C179.898 28.4541 177.948 39.8641 171.278 50.3141C168.418 54.7941 164.498 58.6641 160.738 62.4841C152.068 71.2941 145.378 80.9141 146.148 94.0541C146.198 94.8841 145.888 95.7241 145.688 96.9441V96.9341Z" fill="black"/>
<path d="M138.044 131.644C130.744 131.494 125.294 126.044 125.564 119.154C125.814 112.474 131.854 107.284 139.044 107.574C145.494 107.834 151.464 113.834 151.444 120.044C151.424 126.594 145.424 131.794 138.054 131.644H138.044Z" fill="black"/>
<path d="M148.186 312.514C140.956 312.194 135.376 311.324 132.606 305.524C129.526 299.084 129.936 292.844 135.096 287.374C147.476 274.254 162.756 268.734 180.526 270.714C187.896 271.534 192.676 276.374 194.336 283.674C195.906 290.584 192.406 295.274 186.876 298.854C174.626 306.784 161.106 310.954 148.176 312.524L148.186 312.514Z" fill="#0B0B0D"/>
<path d="M168.664 358.703C173.254 352.833 177.164 347.843 181.124 342.783C186.464 344.743 192.054 346.803 198.724 349.253C197.574 353.743 196.704 359.153 194.764 364.133C192.424 370.133 187.154 371.953 181.634 368.653C176.994 365.873 172.974 362.073 168.664 358.703Z" fill="#FF7BAC"/>
<path d="M186.196 236.835C186.236 231.835 190.126 227.885 195.016 227.895C199.586 227.895 203.436 232.145 203.436 237.175C203.436 241.015 198.346 246.595 195.046 246.375C189.106 245.965 186.146 242.775 186.196 236.845V236.835Z" fill="#0B0B0D"/>
<path d="M118.495 276.775C118.445 282.115 114.925 285.715 109.795 285.665C105.215 285.625 101.315 281.035 101.235 275.615C101.165 270.875 104.775 266.485 108.775 266.465C114.705 266.435 118.555 270.515 118.495 276.775Z" fill="#0B0B0D"/>
</svg>
