<svg width="18" height="18" viewBox="0 0 18 18" fill="none" xmlns="http://www.w3.org/2000/svg">
<path d="M8 17V15H6V13H8V10.9C6.68333 10.6667 5.604 10.0373 4.762 9.012C3.92 7.98667 3.49933 6.79933 3.5 5.45C3.5 3.93333 4.03767 2.646 5.113 1.588C6.18833 0.53 7.484 0.000666667 9 0C10.5167 0 11.8127 0.529333 12.888 1.588C13.9633 2.64667 14.5007 3.934 14.5 5.45C14.5 6.8 14.079 7.98767 13.237 9.013C12.395 10.0383 11.316 10.6673 10 10.9V13H12V15H10V17H8ZM9 9C9.96667 9 10.7917 8.65833 11.475 7.975C12.1583 7.29167 12.5 6.46667 12.5 5.5C12.5 4.53333 12.1583 3.70833 11.475 3.025C10.7917 2.34167 9.96667 2 9 2C8.03333 2 7.20833 2.34167 6.525 3.025C5.84167 3.70833 5.5 4.53333 5.5 5.5C5.5 6.46667 5.84167 7.29167 6.525 7.975C7.20833 8.65833 8.03333 9 9 9Z" fill="#353535"/>
</svg>
