<svg width="30" height="30" viewBox="0 0 30 30" fill="none" xmlns="http://www.w3.org/2000/svg">
<path fill-rule="evenodd" clip-rule="evenodd" d="M28.92 15.3292C28.92 14.301 28.8277 13.3124 28.6564 12.3633H15V17.9721H22.8036C22.4675 19.7846 21.4459 21.3203 19.9102 22.3485V25.9867H24.5964C27.3382 23.4624 28.92 19.7451 28.92 15.3292Z" fill="#4285F4"/>
<path fill-rule="evenodd" clip-rule="evenodd" d="M15.0007 29.4999C18.9157 29.4999 22.198 28.2015 24.5971 25.9869L19.9109 22.3487C18.6125 23.2187 16.9516 23.7328 15.0007 23.7328C11.2241 23.7328 8.02751 21.1822 6.88729 17.7549H2.04297V21.5117C4.42888 26.2506 9.33251 29.4999 15.0007 29.4999Z" fill="#34A853"/>
<path fill-rule="evenodd" clip-rule="evenodd" d="M6.88659 17.7551C6.59659 16.8851 6.43182 15.9558 6.43182 15.0001C6.43182 14.0444 6.59659 13.1151 6.88659 12.2451V8.48828H2.04227C1.06023 10.4458 0.5 12.6603 0.5 15.0001C0.5 17.3399 1.06023 19.5544 2.04227 21.5119L6.88659 17.7551Z" fill="#FBBC05"/>
<path fill-rule="evenodd" clip-rule="evenodd" d="M15.0007 6.26705C17.1296 6.26705 19.0409 6.99864 20.5437 8.43545L24.7025 4.27659C22.1914 1.93682 18.9091 0.5 15.0007 0.5C9.33251 0.5 4.42888 3.74932 2.04297 8.48818L6.88729 12.245C8.02751 8.81773 11.2241 6.26705 15.0007 6.26705Z" fill="#EA4335"/>
</svg>
