<svg width="1728" height="276" viewBox="0 0 1728 276" fill="none" xmlns="http://www.w3.org/2000/svg">
<path fill-rule="evenodd" clip-rule="evenodd" d="M0 71.0628L57.6 107.046C115.2 138.629 248.8 39.4792 364 78.9583C479.2 118.438 576 120.264 691.2 104.472C806.4 88.6808 932.8 55.9218 1048 40.1302C1163.2 24.3385 1267.2 78.9583 1382.4 71.0625C1497.6 63.1667 1612.8 31.5833 1670.4 15.7917L1728 0V276H1670.4C1612.8 276 1497.6 276 1382.4 276C1267.2 276 1152 276 1036.8 276C921.6 276 806.4 276 691.2 276C576 276 460.8 276 345.6 276C230.4 276 115.2 276 57.6 276H0V71.0628Z" fill="#01A786"/>
</svg>
