<svg width="18" height="18" viewBox="0 0 18 18" fill="none" xmlns="http://www.w3.org/2000/svg">
<path d="M17 1V7H15V4.425L11.025 8.375C11.3417 8.84167 11.5833 9.33767 11.75 9.863C11.9167 10.3883 12 10.934 12 11.5C12 13.0333 11.4667 14.3333 10.4 15.4C9.33333 16.4667 8.03333 17 6.5 17C4.96667 17 3.66667 16.4667 2.6 15.4C1.53333 14.3333 1 13.0333 1 11.5C1 9.96667 1.53333 8.66667 2.6 7.6C3.66667 6.53333 4.96667 6 6.5 6C7.05 6 7.59167 6.079 8.125 6.237C8.65833 6.395 9.15 6.641 9.6 6.975L13.575 3H11V1H17ZM6.5 8C5.53333 8 4.70833 8.34167 4.025 9.025C3.34167 9.70833 3 10.5333 3 11.5C3 12.4667 3.34167 13.2917 4.025 13.975C4.70833 14.6583 5.53333 15 6.5 15C7.46667 15 8.29167 14.6583 8.975 13.975C9.65833 13.2917 10 12.4667 10 11.5C10 10.5333 9.65833 9.70833 8.975 9.025C8.29167 8.34167 7.46667 8 6.5 8Z" fill="#353535"/>
</svg>
