<svg width="1728" height="138" viewBox="0 0 1728 138" fill="none" xmlns="http://www.w3.org/2000/svg">
<path fill-rule="evenodd" clip-rule="evenodd" d="M0 4.74986L72 22.4097C144 40.0696 288 75.3894 432 66.5594C576 57.7295 720 4.74986 864 0.334892C1008 -4.08008 1152 40.0696 1296 66.5594C1440 93.0492 1584 101.879 1656 106.294L1728 110.709V137.199H1656C1584 137.199 1440 137.199 1296 137.199C1152 137.199 1008 137.199 864 137.199C720 137.199 576 137.199 432 137.199C288 137.199 144 137.199 72 137.199H0V4.74986Z" fill="#00886D"/>
</svg>
